<?xml version="1.0" encoding="UTF-8" standalone="no"?><!DOCTYPE svg PUBLIC "-//W3C//DTD SVG 1.1//EN" "http://www.w3.org/Graphics/SVG/1.1/DTD/svg11.dtd"><svg width="100%" height="100%" viewBox="0 0 200 200" version="1.1" xmlns="http://www.w3.org/2000/svg" xmlns:xlink="http://www.w3.org/1999/xlink" xml:space="preserve" style="fill-rule:evenodd;clip-rule:evenodd;stroke-linejoin:round;stroke-miterlimit:1.41421;"><rect id="Artboard1" x="0" y="0" width="200" height="200" style="fill:none;"/><path d="M200,20c0,-11.038 -8.962,-20 -20,-20l-160,0c-11.038,0 -20,8.962 -20,20l0,160c0,11.038 8.962,20 20,20l160,0c11.038,0 20,-8.962 20,-20l0,-160Z" style="fill:#1a5ec6;"/><g><path d="M85.755,51.963c-2.472,0 -4.944,0.13 -7.286,0.651l0,24.197c-3.382,-1.301 -7.285,-1.951 -12.489,-1.951c-18.473,0 -33.564,12.619 -33.564,32.913c0,20.816 13.79,32.264 34.085,32.264c10.017,0 20.294,-2.732 26.669,-6.115l0,-81.308c-2.472,-0.521 -5.074,-0.651 -7.415,-0.651Zm-19.514,75.194c-11.188,0 -18.864,-7.545 -18.864,-19.644c0,-11.968 8.196,-19.644 19.124,-19.644c4.423,0 8.456,0.521 11.968,2.732l0,34.605c-3.902,1.431 -7.935,2.082 -12.228,1.951Z" style="fill:#fff;fill-rule:nonzero;"/><path d="M138.963,74.6c-13.269,0 -24.067,5.203 -29.531,9.757l0,53.728c2.472,0.521 4.943,0.651 7.285,0.651c2.472,0 5.074,-0.13 7.415,-0.651l0,-46.573c2.862,-1.691 7.936,-3.383 13.66,-3.383c9.497,0 14.961,4.293 14.961,15.612l0,34.344c2.602,0.521 4.944,0.651 7.415,0.651c2.342,0 4.944,-0.13 7.416,-0.651l0,-37.857c0,-14.18 -8.717,-25.628 -28.621,-25.628Z" style="fill:#fff;fill-rule:nonzero;"/></g></svg>